<?xml version="1.0" encoding="utf-8"?>
<!-- Generator: Adobe Illustrator 23.0.0, SVG Export Plug-In . SVG Version: 6.00 Build 0)  -->
<svg version="1.1" id="Capa_1" xmlns="http://www.w3.org/2000/svg" xmlns:xlink="http://www.w3.org/1999/xlink" x="0px" y="0px"
	 viewBox="0 0 260 25" style="enable-background:new 0 0 260 25;" xml:space="preserve">
<style type="text/css">
	.st0{fill:#BDBCBC;}
</style>
<path class="st0" d="M254,6.5c-3.3,0-6,2.7-6,6s2.7,6,6,6s6-2.7,6-6S257.3,6.5,254,6.5"/>
<path class="st0" d="M238.1,6.5c-3.3,0-6,2.7-6,6s2.7,6,6,6c3.3,0,6-2.7,6-6S241.4,6.5,238.1,6.5"/>
<path class="st0" d="M222.2,6.5c-3.3,0-6,2.7-6,6s2.7,6,6,6c3.3,0,6-2.7,6-6S225.5,6.5,222.2,6.5"/>
<path class="st0" d="M206.2,6.5c-3.3,0-6,2.7-6,6s2.7,6,6,6c3.3,0,6-2.7,6-6S209.5,6.5,206.2,6.5"/>
<rect x="0" y="23.6" class="st0" width="260" height="1.4"/>
<rect x="0" class="st0" width="260" height="1.4"/>
<path class="st0" d="M8.7,3.8C3.9,3.8,0,7.7,0,12.5s3.9,8.7,8.7,8.7s8.7-3.9,8.7-8.7S13.5,3.8,8.7,3.8"/>
</svg>
