<?xml version="1.0" encoding="utf-8"?>
<!-- Generator: Adobe Illustrator 23.0.0, SVG Export Plug-In . SVG Version: 6.00 Build 0)  -->
<svg version="1.1" id="Capa_1" xmlns="http://www.w3.org/2000/svg" xmlns:xlink="http://www.w3.org/1999/xlink" x="0px" y="0px"
	 viewBox="0 0 110 145" style="enable-background:new 0 0 110 145;" xml:space="preserve">
<style type="text/css">
	.st0{fill:#B3B4B7;}
</style>
<g>
	<path class="st0" d="M5.6,112.2c3.1,0,5.6-2.5,5.6-5.6S8.6,101,5.6,101S0,103.5,0,106.6S2.5,112.2,5.6,112.2"/>
	<path class="st0" d="M20.4,112.2c3.1,0,5.6-2.5,5.6-5.6s-2.5-5.6-5.6-5.6s-5.6,2.5-5.6,5.6S17.3,112.2,20.4,112.2"/>
	<path class="st0" d="M35.2,112.2c3.1,0,5.6-2.5,5.6-5.6s-2.5-5.6-5.6-5.6s-5.6,2.5-5.6,5.6S32.1,112.2,35.2,112.2"/>
	<path class="st0" d="M50,112.2c3.1,0,5.6-2.5,5.6-5.6S53.1,101,50,101s-5.6,2.5-5.6,5.6S47,112.2,50,112.2"/>
	<rect y="94.7" class="st0" width="110" height="1.3"/>
	<rect y="117.3" class="st0" width="110" height="1.3"/>
	<rect class="st0" width="110" height="4.2"/>
	<rect y="10.8" class="st0" width="110" height="4.2"/>
	<rect y="32.3" class="st0" width="81.6" height="4.2"/>
	<rect y="21.6" class="st0" width="110" height="4.2"/>
	<g>
		<rect y="140.8" class="st0" width="81.6" height="4.2"/>
		<rect y="130" class="st0" width="110" height="4.2"/>
	</g>
	<path class="st0" d="M16.1,81.7c8.9,0,16.1-7.2,16.1-16.1S25,49.4,16.1,49.4S0,56.7,0,65.6S7.2,81.7,16.1,81.7"/>
	<rect x="44.9" y="63.5" class="st0" width="52.1" height="4.2"/>
</g>
</svg>
