<?xml version="1.0" encoding="utf-8"?>
<!-- Generator: Adobe Illustrator 25.4.1, SVG Export Plug-In . SVG Version: 6.00 Build 0)  -->
<svg version="1.1" id="Capa_1" xmlns="http://www.w3.org/2000/svg" xmlns:xlink="http://www.w3.org/1999/xlink" x="0px" y="0px"
	 viewBox="0 0 79.8 11" style="enable-background:new 0 0 79.8 11;" xml:space="preserve">
<style type="text/css">
	.st0{fill:#FFFFFF;stroke:#FFFFFF;stroke-width:2.7514;stroke-miterlimit:10;}
	.st1{fill:#E42320;}
</style>
<g>
	<path class="st0" d="M75.4,9.6h-71c-1.7,0-3-1.3-3-3V4.4c0-1.7,1.3-3,3-3h71c1.7,0,3,1.3,3,3v2.3C78.4,8.3,77.1,9.6,75.4,9.6z"/>
	<path class="st1" d="M19.6,9.6H4.5c-1.7,0-3-1.3-3-3V4.4c0-1.7,1.3-3,3-3h15.1c1.7,0,3,1.3,3,3v2.3C22.6,8.3,21.2,9.6,19.6,9.6z"/>
</g>
</svg>
