<?xml version="1.0" encoding="utf-8"?>
<!-- Generator: Adobe Illustrator 23.0.0, SVG Export Plug-In . SVG Version: 6.00 Build 0)  -->
<svg version="1.1" id="Capa_1" xmlns="http://www.w3.org/2000/svg" xmlns:xlink="http://www.w3.org/1999/xlink" x="0px" y="0px"
	 viewBox="0 0 110 160" style="enable-background:new 0 0 110 160;" xml:space="preserve">
<style type="text/css">
	.st0{fill:#B3B4B7;}
</style>
<rect class="st0" width="110" height="22"/>
<path class="st0" d="M5.6,44c3.1,0,5.6-2.5,5.6-5.6s-2.5-5.6-5.6-5.6S0,35.4,0,38.4C0,41.5,2.5,44,5.6,44"/>
<path class="st0" d="M5.6,71.5c3.1,0,5.6-2.5,5.6-5.6s-2.5-5.6-5.6-5.6S0,62.9,0,66C0,69,2.5,71.5,5.6,71.5"/>
<path class="st0" d="M5.6,99c3.1,0,5.6-2.5,5.6-5.6s-2.5-5.6-5.6-5.6S0,90.4,0,93.5S2.5,99,5.6,99"/>
<path class="st0" d="M5.6,126.6c3.1,0,5.6-2.5,5.6-5.6s-2.5-5.6-5.6-5.6S0,117.9,0,121S2.5,126.6,5.6,126.6"/>
<path class="st0" d="M29,144.5c0,0-5.2,0-5.2,5.2v5.2c0,0,0,5.2,5.2,5.2h53c0,0,5.2,0,5.2-5.2v-5.2c0,0,0-5.2-5.2-5.2H29z"/>
<rect x="19.6" y="48" class="st0" width="67" height="2.1"/>
<rect x="19.6" y="42.9" class="st0" width="90.4" height="2.1"/>
<rect x="19.6" y="37.9" class="st0" width="10.6" height="2.1"/>
<rect x="19.6" y="76" class="st0" width="67" height="2.1"/>
<rect x="19.6" y="71" class="st0" width="90.4" height="2.1"/>
<rect x="19.6" y="66" class="st0" width="10.6" height="2.1"/>
<rect x="19.6" y="104.1" class="st0" width="67" height="2.1"/>
<rect x="19.6" y="99.1" class="st0" width="90.4" height="2.1"/>
<rect x="19.6" y="94.1" class="st0" width="10.6" height="2.1"/>
<rect x="19.6" y="129.9" class="st0" width="67" height="2.1"/>
<rect x="19.6" y="124.9" class="st0" width="90.4" height="2.1"/>
<rect x="19.6" y="119.9" class="st0" width="10.6" height="2.1"/>
</svg>
