<?xml version="1.0" encoding="utf-8"?>
<!-- Generator: Adobe Illustrator 23.0.0, SVG Export Plug-In . SVG Version: 6.00 Build 0)  -->
<svg version="1.1" id="Capa_1" xmlns="http://www.w3.org/2000/svg" xmlns:xlink="http://www.w3.org/1999/xlink" x="0px" y="0px"
	 viewBox="0 0 240 220" style="enable-background:new 0 0 240 220;" xml:space="preserve">
<style type="text/css">
	.st0{fill:#BDBCBC;}
	.st1{fill:none;}
</style>
<rect x="0" class="st0" width="240" height="21.9"/>
<path class="st0" d="M9.2,51.1c5.1,0,9.2-4.1,9.2-9.2c0-5.1-4.1-9.2-9.2-9.2S0,36.8,0,41.9C0,47,4.1,51.1,9.2,51.1"/>
<path class="st0" d="M9.2,96.8c5.1,0,9.2-4.1,9.2-9.2s-4.1-9.2-9.2-9.2S0,82.4,0,87.5S4.1,96.8,9.2,96.8"/>
<path class="st0" d="M9.2,142.4c5.1,0,9.2-4.1,9.2-9.2s-4.1-9.2-9.2-9.2S0,128.1,0,133.2S4.1,142.4,9.2,142.4"/>
<path class="st0" d="M9.2,188c5.1,0,9.2-4.1,9.2-9.2c0-5.1-4.1-9.2-9.2-9.2S0,173.7,0,178.8C0,183.9,4.1,188,9.2,188"/>
<path class="st0" d="M93.6,204.6c0,0-5.1,0-5.1,5.1v5.1c0,0,0,5.1,5.1,5.1h52.7c0,0,5.1,0,5.1-5.1v-5.1c0,0,0-5.1-5.1-5.1H93.6z"/>
<rect x="0" y="0" class="st1" width="240" height="226.4"/>
<g>
	<rect x="32.5" y="48.5" class="st0" width="153.9" height="3.5"/>
	<rect x="32.5" y="40.2" class="st0" width="207.5" height="3.5"/>
	<rect x="32.5" y="31.9" class="st0" width="24.3" height="3.5"/>
</g>
<g>
	<rect x="32.5" y="95.9" class="st0" width="153.9" height="3.5"/>
	<rect x="32.5" y="87.6" class="st0" width="207.5" height="3.5"/>
	<rect x="32.5" y="79.3" class="st0" width="24.3" height="3.5"/>
</g>
<g>
	<rect x="32.5" y="139.7" class="st0" width="153.9" height="3.5"/>
	<rect x="32.5" y="131.4" class="st0" width="207.5" height="3.5"/>
	<rect x="32.5" y="123.1" class="st0" width="24.3" height="3.5"/>
</g>
<g>
	<rect x="32.5" y="185.3" class="st0" width="153.9" height="3.5"/>
	<rect x="32.5" y="177" class="st0" width="207.5" height="3.5"/>
	<rect x="32.5" y="168.7" class="st0" width="24.3" height="3.5"/>
</g>
</svg>
