<?xml version="1.0" encoding="utf-8"?>
<!-- Generator: Adobe Illustrator 23.0.0, SVG Export Plug-In . SVG Version: 6.00 Build 0)  -->
<svg version="1.1" id="Capa_1" xmlns="http://www.w3.org/2000/svg" xmlns:xlink="http://www.w3.org/1999/xlink" x="0px" y="0px"
	 viewBox="0 0 240 145" style="enable-background:new 0 0 240 145;" xml:space="preserve">
<style type="text/css">
	.st0{fill:#BDBCBC;}
</style>
<rect x="192" class="st0" width="48" height="43.6"/>
<rect x="0" class="st0" width="168.7" height="43.6"/>
<rect x="0" y="109" class="st0" width="240" height="36"/>
<path class="st0" d="M5.5,80.8c3,0,5.5-2.5,5.5-5.5c0-3-2.5-5.5-5.5-5.5S0,72.3,0,75.3C0,78.4,2.5,80.8,5.5,80.8"/>
<path class="st0" d="M20.2,80.8c3,0,5.5-2.5,5.5-5.5c0-3-2.5-5.5-5.5-5.5s-5.5,2.5-5.5,5.5C14.7,78.4,17.2,80.8,20.2,80.8"/>
<path class="st0" d="M34.9,80.8c3,0,5.5-2.5,5.5-5.5c0-3-2.5-5.5-5.5-5.5c-3,0-5.5,2.5-5.5,5.5C29.4,78.4,31.9,80.8,34.9,80.8"/>
<path class="st0" d="M49.6,80.8c3,0,5.5-2.5,5.5-5.5c0-3-2.5-5.5-5.5-5.5c-3,0-5.5,2.5-5.5,5.5C44.1,78.4,46.6,80.8,49.6,80.8"/>
<rect x="0" y="63.5" class="st0" width="240" height="1.3"/>
<rect x="0" y="85.9" class="st0" width="240" height="1.3"/>
</svg>
