<?xml version="1.0" encoding="utf-8"?>
<!-- Generator: Adobe Illustrator 23.0.0, SVG Export Plug-In . SVG Version: 6.00 Build 0)  -->
<svg version="1.1" id="Capa_1" xmlns="http://www.w3.org/2000/svg" xmlns:xlink="http://www.w3.org/1999/xlink" x="0px" y="0px"
	 viewBox="0 0 110 150" style="enable-background:new 0 0 110 150;" xml:space="preserve">
<style type="text/css">
	.st0{fill:#E30613;}
	.st1{fill:#BDBCBC;}
</style>
<path class="st0" d="M67.1,1.9l0-0.3L64.5,0l-3.3,3.9l1.2,1L67.1,1.9L67.1,1.9z M73.2,15.8c0,1.6,0,1.8,0.9,2l0.3,0V19H68v-1.1
	l0.4-0.1c0.9-0.1,1-0.3,1-2V9.1c0-1.1-0.2-1.5-1-1.6l-0.5-0.1l0.1-1.2h4.7l0.3,0.1L73,7.8c1.1-1.1,2.5-2,4.2-2
	c2.1,0,3.4,1.2,3.4,4.1v5.9c0,1.6,0.1,1.8,1,2l0.5,0.1V19h-6.3v-1.1l0.3,0c0.8-0.1,0.8-0.4,0.8-1.8v-5.7c0-1.4-0.6-1.8-1.6-1.8
	c-1,0-1.7,0.3-2,0.5V15.8z M65.8,15.8c0,1.6,0.1,1.8,1,2l0.5,0.1V19h-6.9v-1.1l0.5-0.1c0.9-0.1,1.1-0.3,1.1-1.9V9.1
	c0-1.1-0.3-1.5-1.1-1.7l-0.4-0.1l0.1-1.2h4.9l0.2,0.1L65.8,15.8L65.8,15.8z M55.5,15.8c0,1.6,0.1,1.8,1,1.9l0.9,0.1V19h-7.1v-1.2
	l0.5-0.1c0.9-0.2,0.9-0.3,0.9-1.9V9.1c0-1-0.2-1.5-1-1.6l-0.5-0.1l0.1-1.2h4.6l0.3,0.1l0.3,1.8c0.8-1.4,1.8-2.3,3.1-2.3
	c0.5,0,1,0.1,1.4,0.2l-0.3,4.3h-0.3c-1.8-1.1-3-1.4-3.8-1L55.5,15.8L55.5,15.8z M44.5,13.3c-2.1-0.1-3.2,0.4-3.2,1.9
	c0,1.1,0.6,1.7,1.6,1.7c0.9,0,1.6-0.4,1.6-1.4L44.5,13.3L44.5,13.3z M49.6,19c-0.8,0.2-1.5,0.4-2.2,0.4c-2,0-2.5-0.9-2.7-1.7
	C44,18.4,43,19.3,41,19.3c-3,0-3.5-2.1-3.5-3.6c0-3.8,4-3.9,7-4v-1.6c0-1.2-0.5-2-1.9-2c-1.3,0-2.5,0.4-3.7,1l-0.8-1.6
	c0.8-0.5,2.8-1.7,5.5-1.7c3.3,0,4.7,1,4.7,4.9v5.8c0,1,0.1,1.2,1,1.3l0.4,0V19z M35.7,15.8c0,1.6,0.1,1.8,1,2l0.5,0.1V19h-6.7v-1.1
	l0.5-0.1c0.9-0.1,1-0.3,1-1.9V3.4c0-1.1-0.3-1.3-1.1-1.5l-0.5-0.1l0.1-1.1h5.2V15.8z M29.4,18.1c-1.4,0.8-3.4,1.2-5.3,1.2
	c-6.3,0-8.6-4.1-8.6-8.8c0-5.4,3-9.6,9.1-9.6c1.6,0,3.6,0.5,5.1,1.4l-0.3,4.6l-1.8-0.2l-0.4-1.9c-0.2-1.2-1-1.9-2.7-1.9
	c-3,0-4.9,2.7-4.9,7.2c0,4.9,1.7,7.3,4.8,7.3c1.8,0,2.5-0.4,2.8-1.8l0.5-1.6h1.9L29.4,18.1z"/>
<path class="st0" d="M94.5,5.8c-1.6-0.3-2.9-0.2-3.1-0.2c-0.8,4.1-5.3,6.5-3.8,6.7c0.3,0,0.6,0.1,0.8,0.1c0.8,0,1.5-0.1,2.2-0.4
	c1.7-0.6,3.3-2.1,3.8-4.3c0.1-0.5,0.2-0.9,0.2-1.5C94.6,6.1,94.6,6,94.5,5.8L94.5,5.8z M89.4,5.9c-2.1,0.7,0,0-2.1,0.7c0,0,0,0,0,0
	c0,1-0.8,1.8-1.8,1.8c-1,0-1.8-0.8-1.8-1.8c0-1,0.8-1.8,1.8-1.8c0.8,0,1.4,0.5,1.7,1.2c1.2-0.3,4.2-1.2,6.1-3.7
	c-0.8-1.1-2-1.8-3.3-2.2c-0.5-0.1-1-0.2-1.5-0.2c-1,0-1.9,0.2-2.8,0.6c-0.6,0.3-1.2,0.7-1.7,1.2c-0.6,0.6-1.1,1.3-1.4,2.3
	c-1.2,3.7,1.7,5,3,5c0.4,0,1.5-0.1,2.5-0.9C88.6,7.8,89.2,7.1,89.4,5.9L89.4,5.9z"/>
<g>
	<path class="st1" d="M26.8,107c6.3,0,11.4-5.1,11.4-11.4c0-6.3-5.1-11.4-11.4-11.4s-11.4,5.1-11.4,11.4
		C15.4,101.9,20.5,107,26.8,107"/>
	<path class="st1" d="M55.2,107c6.3,0,11.4-5.1,11.4-11.4c0-6.3-5.1-11.4-11.4-11.4s-11.4,5.1-11.4,11.4
		C43.9,101.9,48.9,107,55.2,107"/>
	<path class="st1" d="M83.6,107c6.3,0,11.4-5.1,11.4-11.4c0-6.3-5.1-11.4-11.4-11.4c-6.3,0-11.4,5.1-11.4,11.4
		C72.3,101.9,77.4,107,83.6,107"/>
</g>
<g>
	<rect x="24.1" y="145.8" class="st1" width="61.8" height="4.2"/>
	<rect y="136.9" class="st1" width="110" height="4.2"/>
	<rect x="23.8" y="128" class="st1" width="62.3" height="4.2"/>
</g>
<g>
	<rect x="24.1" y="59.1" class="st1" width="61.8" height="4.2"/>
	<rect y="50.2" class="st1" width="110" height="4.2"/>
	<rect x="23.8" y="41.3" class="st1" width="62.3" height="4.2"/>
</g>
</svg>
