<?xml version="1.0" encoding="utf-8"?>
<!-- Generator: Adobe Illustrator 23.0.0, SVG Export Plug-In . SVG Version: 6.00 Build 0)  -->
<svg version="1.1" id="Capa_1" xmlns="http://www.w3.org/2000/svg" xmlns:xlink="http://www.w3.org/1999/xlink" x="0px" y="0px"
	 viewBox="0 0 80 20" style="enable-background:new 0 0 80 20;" xml:space="preserve">
<style type="text/css">
	.st0{fill:#FFFFFF;}
</style>
<g>
	<path class="st0" d="M14.1,18.5c-1.5,0.8-3.4,1.2-5.4,1.2c-6.3,0-8.7-4.1-8.7-8.9c0-5.5,3-9.7,9.2-9.7c1.6,0,3.7,0.5,5.1,1.4
		L14,7.1L12.3,7l-0.4-2c-0.2-1.2-1.1-2-2.7-2c-3,0-4.9,2.7-4.9,7.3c0,4.9,1.7,7.4,4.8,7.4c1.8,0,2.5-0.4,2.9-1.8l0.5-1.6h1.9
		L14.1,18.5z M20.5,16.3c0,1.6,0.1,1.8,1,2l0.5,0.1v1.2h-6.8v-1.2l0.5-0.1c0.9-0.1,1-0.3,1-2V3.7c0-1.1-0.3-1.3-1.1-1.5L15.1,2
		l0.1-1.1h5.3V16.3z M34.5,19.4c-0.8,0.2-1.5,0.4-2.2,0.4c-2,0-2.5-0.9-2.7-1.7C29,19,28,19.8,25.9,19.8c-3,0-3.6-2.1-3.6-3.6
		c0-3.9,4-3.9,7-4v-1.6c0-1.2-0.5-2.1-2-2.1c-1.3,0-2.5,0.4-3.7,1l-0.8-1.6c0.8-0.5,2.8-1.8,5.5-1.8c3.3,0,4.8,1.1,4.8,4.9v5.9
		c0,1,0.1,1.2,1,1.3h0.4V19.4z M29.3,13.7c-2.1-0.1-3.3,0.4-3.3,1.9c0,1.2,0.6,1.7,1.6,1.7c0.9,0,1.7-0.4,1.7-1.4
		C29.3,15.9,29.3,13.7,29.3,13.7z M40.5,16.3c0,1.6,0.1,1.8,1,1.9l0.9,0.1v1.2h-7.1v-1.2l0.5-0.1c0.9-0.2,0.9-0.3,0.9-2V9.4
		c0-1-0.2-1.5-1-1.6l-0.5-0.1l0.1-1.2h4.6l0.3,0.1l0.3,1.9c0.8-1.4,1.8-2.4,3.2-2.4c0.5,0,1,0.1,1.4,0.2l-0.3,4.4h-0.3
		c-1.8-1.1-3-1.4-3.8-1v6.6H40.5z M50.9,16.3c0,1.6,0.1,1.8,1,2l0.5,0.1v1.2h-7v-1.2l0.5-0.1c0.9-0.1,1.1-0.3,1.1-2V9.5
		c0-1.2-0.3-1.5-1.1-1.7l-0.4-0.1l0.1-1.2h5l0.3,0.1C50.9,6.6,50.9,16.3,50.9,16.3z M58.4,16.3c0,1.6,0,1.8,0.9,2h0.3v1.2h-6.4v-1.2
		l0.4-0.1c0.9-0.1,1-0.3,1-2V9.5c0-1.1-0.2-1.5-1.1-1.7L53,7.7l0.1-1.2h4.7L58,6.6l0.2,1.5c1.1-1.1,2.5-2,4.3-2
		c2.1,0,3.4,1.2,3.4,4.1v6c0,1.6,0.1,1.9,1,2l0.5,0.1v1.2H61v-1.2h0.3c0.8-0.1,0.8-0.4,0.8-1.9v-5.7c0-1.4-0.6-1.9-1.7-1.9
		c-1,0-1.8,0.3-2.1,0.5v7H58.4z M52.3,2.2V1.9l-2.7-1.7l-3.3,3.9l1.2,1.1L52.3,2.2z"/>
	<g>
		<path class="st0" d="M74.8,6.3c-2.2,0.7,0,0-2.2,0.7l0,0c0,1-0.8,1.8-1.8,1.8S69,8,69,7s0.8-1.8,1.8-1.8c0.8,0,1.4,0.5,1.7,1.2
			c1.2-0.3,4.3-1.2,6.1-3.7c-0.8-1.1-2-1.9-3.4-2.2c-0.5-0.1-1-0.2-1.6-0.2c-1,0-1.9,0.2-2.8,0.7c-0.7,0.3-1.2,0.7-1.7,1.3
			C68.5,3,68,3.7,67.7,4.6c-1.2,3.8,1.7,5,3.1,5c0.4,0,1.6-0.1,2.6-0.9C74,8.1,74.6,7.4,74.8,6.3z M80,6.1c-1.6-0.3-2.9-0.2-3.2-0.2
			c-0.8,4.1-5.4,6.6-3.9,6.8c0.3,0,0.6,0.1,0.8,0.1c0.8,0,1.5-0.1,2.2-0.4c1.7-0.6,3.3-2.1,3.9-4.3c0.1-0.6,0.2-1,0.2-1.6
			C80,6.4,80,6.3,80,6.1z"/>
	</g>
</g>
</svg>
