<?xml version="1.0" encoding="utf-8"?>
<!-- Generator: Adobe Illustrator 23.0.0, SVG Export Plug-In . SVG Version: 6.00 Build 0)  -->
<svg version="1.1" id="Capa_1" xmlns="http://www.w3.org/2000/svg" xmlns:xlink="http://www.w3.org/1999/xlink" x="0px" y="0px"
	 viewBox="0 0 80 20" style="enable-background:new 0 0 80 20;" xml:space="preserve">
<style type="text/css">
	.st0{fill:#B3B4B7;}
</style>
<g>
	<path class="st0" d="M14.1,18.5c-1.5,0.8-3.4,1.2-5.4,1.2c-6.3,0-8.7-4.1-8.7-8.9c0-5.5,3-9.7,9.2-9.7c1.6,0,3.7,0.5,5.1,1.4
		l-0.3,4.6L12.3,7l-0.4-2c-0.2-1.2-1.1-2-2.7-2c-3,0-4.9,2.7-4.9,7.3c0,4.9,1.7,7.4,4.8,7.4c1.8,0,2.5-0.4,2.9-1.8l0.5-1.6h1.9
		L14.1,18.5z M20.5,16.3c0,1.6,0.1,1.8,1,2l0.5,0.1v1.2h-6.8v-1.2l0.5-0.1c0.9-0.1,1-0.3,1-2V3.7c0-1.1-0.3-1.3-1.1-1.5L15.1,2
		l0.1-1.1h5.3V16.3z M34.5,19.4c-0.8,0.2-1.5,0.4-2.2,0.4c-2,0-2.5-0.9-2.7-1.7c-0.6,0.9-1.6,1.7-3.7,1.7c-3,0-3.6-2.1-3.6-3.6
		c0-3.9,4-3.9,7-4v-1.6c0-1.2-0.5-2.1-2-2.1c-1.3,0-2.5,0.4-3.7,1l-0.8-1.6c0.8-0.5,2.8-1.8,5.5-1.8c3.3,0,4.8,1.1,4.8,4.9v5.9
		c0,1,0.1,1.2,1,1.3l0.4,0V19.4z M29.3,13.7c-2.1-0.1-3.3,0.4-3.3,1.9c0,1.2,0.6,1.7,1.6,1.7c0.9,0,1.7-0.4,1.7-1.4V13.7z
		 M40.5,16.3c0,1.6,0.1,1.8,1,1.9l0.9,0.1v1.2h-7.1v-1.2l0.5-0.1c0.9-0.2,0.9-0.3,0.9-2V9.4c0-1-0.2-1.5-1-1.6l-0.5-0.1l0.1-1.2h4.6
		l0.3,0.1l0.3,1.9c0.8-1.4,1.8-2.4,3.2-2.4c0.5,0,1,0.1,1.4,0.2l-0.3,4.4h-0.3c-1.8-1.1-3-1.4-3.8-1V16.3z M50.9,16.3
		c0,1.6,0.1,1.8,1,2l0.5,0.1v1.2h-7v-1.2l0.5-0.1c0.9-0.1,1.1-0.3,1.1-2V9.5c0-1.2-0.3-1.5-1.1-1.7l-0.4-0.1l0.1-1.2h5l0.3,0.1V16.3
		z M58.4,16.3c0,1.6,0,1.8,0.9,2l0.3,0v1.2h-6.4v-1.2l0.4-0.1c0.9-0.1,1-0.3,1-2V9.5c0-1.1-0.2-1.5-1.1-1.7L53,7.7l0.1-1.2h4.7
		L58,6.6l0.2,1.5c1.1-1.1,2.5-2,4.3-2c2.1,0,3.4,1.2,3.4,4.1v6c0,1.6,0.1,1.9,1,2l0.5,0.1v1.2H61v-1.2l0.3,0
		c0.8-0.1,0.8-0.4,0.8-1.9v-5.7c0-1.4-0.6-1.9-1.7-1.9c-1,0-1.8,0.3-2.1,0.5V16.3z M52.3,2.2l0-0.3l-2.7-1.7l-3.3,3.9l1.2,1.1
		L52.3,2.2z"/>
	<g>
		<path class="st0" d="M74.8,6.3c-2.2,0.7,0,0-2.2,0.7c0,0,0,0,0,0c0,1-0.8,1.8-1.8,1.8C69.8,8.8,69,8,69,7c0-1,0.8-1.8,1.8-1.8
			c0.8,0,1.4,0.5,1.7,1.2c1.2-0.3,4.3-1.2,6.1-3.7c-0.8-1.1-2-1.9-3.4-2.2c-0.5-0.1-1-0.2-1.6-0.2c-1,0-1.9,0.2-2.8,0.7
			c-0.7,0.3-1.2,0.7-1.7,1.3c-0.6,0.7-1.1,1.4-1.4,2.3c-1.2,3.8,1.7,5,3.1,5c0.4,0,1.6-0.1,2.6-0.9C74,8.1,74.6,7.4,74.8,6.3z
			 M80,6.1c-1.6-0.3-2.9-0.2-3.2-0.2c-0.8,4.1-5.4,6.6-3.9,6.8c0.3,0,0.6,0.1,0.8,0.1c0.8,0,1.5-0.1,2.2-0.4
			c1.7-0.6,3.3-2.1,3.9-4.3C79.9,7.5,80,7.1,80,6.5C80,6.4,80,6.3,80,6.1z"/>
	</g>
</g>
</svg>
