<?xml version="1.0" encoding="utf-8"?>
<!-- Generator: Adobe Illustrator 23.0.0, SVG Export Plug-In . SVG Version: 6.00 Build 0)  -->
<svg version="1.1" id="Capa_1" xmlns="http://www.w3.org/2000/svg" xmlns:xlink="http://www.w3.org/1999/xlink" x="0px" y="0px"
	 viewBox="0 0 110 300" style="enable-background:new 0 0 110 300;" xml:space="preserve">
<style type="text/css">
	.st0{fill:#BDBCBC;}
</style>
<rect class="st0" width="110" height="21.4"/>
<rect y="42.9" class="st0" width="39.4" height="36.2"/>
<rect x="48.4" y="57.5" class="st0" width="34.6" height="3.5"/>
<rect x="48.4" y="50.2" class="st0" width="61.6" height="3.5"/>
<rect x="48.4" y="42.9" class="st0" width="61.6" height="3.5"/>
<rect y="87" class="st0" width="39.4" height="36.2"/>
<rect x="48.4" y="101.7" class="st0" width="34.6" height="3.5"/>
<rect x="48.4" y="94.4" class="st0" width="61.6" height="3.5"/>
<rect x="48.4" y="87" class="st0" width="61.6" height="3.5"/>
<rect y="131.2" class="st0" width="39.4" height="36.2"/>
<rect x="48.4" y="145.9" class="st0" width="34.6" height="3.5"/>
<rect x="48.4" y="138.5" class="st0" width="61.6" height="3.5"/>
<rect x="48.4" y="131.2" class="st0" width="61.6" height="3.5"/>
<rect y="175.4" class="st0" width="39.4" height="36.2"/>
<rect x="48.4" y="190.1" class="st0" width="34.6" height="3.5"/>
<rect x="48.4" y="182.7" class="st0" width="61.6" height="3.5"/>
<rect x="48.4" y="175.4" class="st0" width="61.6" height="3.5"/>
<rect y="263.8" class="st0" width="39.4" height="36.2"/>
<rect x="48.4" y="278.4" class="st0" width="34.6" height="3.5"/>
<rect x="48.4" y="271.1" class="st0" width="61.6" height="3.5"/>
<rect x="48.4" y="263.8" class="st0" width="61.6" height="3.5"/>
<rect y="219.6" class="st0" width="39.4" height="36.2"/>
<rect x="48.4" y="234.2" class="st0" width="34.6" height="3.5"/>
<rect x="48.4" y="226.9" class="st0" width="61.6" height="3.5"/>
<rect x="48.4" y="219.6" class="st0" width="61.6" height="3.5"/>
</svg>
