<?xml version="1.0" encoding="utf-8"?>
<!-- Generator: Adobe Illustrator 23.0.0, SVG Export Plug-In . SVG Version: 6.00 Build 0)  -->
<svg version="1.1" id="Capa_1" xmlns="http://www.w3.org/2000/svg" xmlns:xlink="http://www.w3.org/1999/xlink" x="0px" y="0px"
	 viewBox="0 0 110 150" style="enable-background:new 0 0 110 150;" xml:space="preserve">
<style type="text/css">
	.st0{fill:#B3B4B7;}
	.st1{fill:none;stroke:#FFFFFF;stroke-width:1.2937;}
	.st2{fill:#FFFFFF;}
	.st3{clip-path:url(#SVGID_2_);fill:#FFFFFF;}
	.st4{clip-path:url(#SVGID_4_);fill:#FFFFFF;}
	.st5{clip-path:url(#SVGID_6_);fill:#FFFFFF;}
	.st6{clip-path:url(#SVGID_8_);fill:#FFFFFF;}
	.st7{clip-path:url(#SVGID_10_);fill:#FFFFFF;}
	.st8{clip-path:url(#SVGID_12_);fill:#FFFFFF;}
	.st9{clip-path:url(#SVGID_14_);fill:#FFFFFF;}
	.st10{clip-path:url(#SVGID_16_);fill:#FFFFFF;}
</style>
<rect class="st0" width="110" height="150"/>
<rect x="10.6" y="66.7" class="st0" width="25.8" height="42.7"/>
<rect x="10.6" y="66.7" class="st1" width="25.8" height="42.7"/>
<rect x="73.5" y="67" class="st0" width="25.8" height="42.1"/>
<rect x="73.5" y="67" class="st1" width="25.8" height="42.1"/>
<rect x="42.1" y="66.7" class="st0" width="25.8" height="42.7"/>
<rect x="42.1" y="66.7" class="st1" width="25.8" height="42.7"/>
<rect x="10" y="45.7" class="st2" width="49.2" height="5.6"/>
<rect x="10" y="33.9" class="st2" width="87.5" height="5.6"/>
<rect x="10" y="22" class="st2" width="87.5" height="5.6"/>
<g>
	<defs>
		<rect id="SVGID_1_" width="110" height="150"/>
	</defs>
	<clipPath id="SVGID_2_">
		<use xlink:href="#SVGID_1_"  style="overflow:visible;"/>
	</clipPath>
	<path class="st3" d="M13.1,132c1.7,0,3.1-1.4,3.1-3.1c0-1.7-1.4-3.1-3.1-3.1s-3.1,1.4-3.1,3.1C10,130.6,11.4,132,13.1,132"/>
</g>
<g>
	<defs>
		<rect id="SVGID_3_" width="110" height="150"/>
	</defs>
	<clipPath id="SVGID_4_">
		<use xlink:href="#SVGID_3_"  style="overflow:visible;"/>
	</clipPath>
	<path class="st4" d="M25.1,132c1.7,0,3.1-1.4,3.1-3.1c0-1.7-1.4-3.1-3.1-3.1s-3.1,1.4-3.1,3.1C22,130.6,23.4,132,25.1,132"/>
</g>
<g>
	<defs>
		<rect id="SVGID_5_" width="110" height="150"/>
	</defs>
	<clipPath id="SVGID_6_">
		<use xlink:href="#SVGID_5_"  style="overflow:visible;"/>
	</clipPath>
	<path class="st5" d="M37,132c1.7,0,3.1-1.4,3.1-3.1c0-1.7-1.4-3.1-3.1-3.1s-3.1,1.4-3.1,3.1C33.9,130.6,35.3,132,37,132"/>
</g>
<g>
	<defs>
		<rect id="SVGID_7_" width="110" height="150"/>
	</defs>
	<clipPath id="SVGID_8_">
		<use xlink:href="#SVGID_7_"  style="overflow:visible;"/>
	</clipPath>
	<path class="st6" d="M49,132c1.7,0,3.1-1.4,3.1-3.1c0-1.7-1.4-3.1-3.1-3.1c-1.7,0-3.1,1.4-3.1,3.1C45.9,130.6,47.3,132,49,132"/>
</g>
<g>
	<defs>
		<rect id="SVGID_9_" width="110" height="150"/>
	</defs>
	<clipPath id="SVGID_10_">
		<use xlink:href="#SVGID_9_"  style="overflow:visible;"/>
	</clipPath>
	<path class="st7" d="M84.9,132c1.7,0,3.1-1.4,3.1-3.1c0-1.7-1.4-3.1-3.1-3.1s-3.1,1.4-3.1,3.1C81.8,130.6,83.2,132,84.9,132"/>
</g>
<g>
	<defs>
		<rect id="SVGID_11_" width="110" height="150"/>
	</defs>
	<clipPath id="SVGID_12_">
		<use xlink:href="#SVGID_11_"  style="overflow:visible;"/>
	</clipPath>
	<path class="st8" d="M96.9,132c1.7,0,3.1-1.4,3.1-3.1c0-1.7-1.4-3.1-3.1-3.1s-3.1,1.4-3.1,3.1C93.8,130.6,95.2,132,96.9,132"/>
</g>
<g>
	<defs>
		<rect id="SVGID_13_" width="110" height="150"/>
	</defs>
	<clipPath id="SVGID_14_">
		<use xlink:href="#SVGID_13_"  style="overflow:visible;"/>
	</clipPath>
	<path class="st9" d="M61,132c1.7,0,3.1-1.4,3.1-3.1c0-1.7-1.4-3.1-3.1-3.1c-1.7,0-3.1,1.4-3.1,3.1C57.9,130.6,59.3,132,61,132"/>
</g>
<g>
	<defs>
		<rect id="SVGID_15_" width="110" height="150"/>
	</defs>
	<clipPath id="SVGID_16_">
		<use xlink:href="#SVGID_15_"  style="overflow:visible;"/>
	</clipPath>
	<path class="st10" d="M73,132c1.7,0,3.1-1.4,3.1-3.1c0-1.7-1.4-3.1-3.1-3.1s-3.1,1.4-3.1,3.1C69.8,130.6,71.2,132,73,132"/>
</g>
</svg>
