<?xml version="1.0" encoding="utf-8"?>
<!-- Generator: Adobe Illustrator 25.4.1, SVG Export Plug-In . SVG Version: 6.00 Build 0)  -->
<svg version="1.1" id="Capa_1" xmlns="http://www.w3.org/2000/svg" xmlns:xlink="http://www.w3.org/1999/xlink" x="0px" y="0px"
	 viewBox="0 0 15 15" style="enable-background:new 0 0 15 15;" xml:space="preserve">
<style type="text/css">
	.st0{fill:#FFFFFF;}
</style>
<path class="st0" d="M7.5,0c2,0,3.8,0.8,5.2,2.1L13.8,1C14.2,0.5,15,0.9,15,1.5v4.1c0,0.4-0.3,0.7-0.7,0.7h-4.1
	c-0.6,0-1-0.8-0.5-1.2L11,3.8C10,2.9,8.8,2.4,7.5,2.4c-2.8,0-5.1,2.2-5.1,5.1c0,2.7,2.2,5,5.1,5c1.2,0,2.4-0.4,3.3-1.3
	c0.1-0.1,0.4-0.1,0.5,0l1.2,1.2c0.1,0.1,0.1,0.4,0,0.5c-1.3,1.2-3.1,1.9-5,1.9C3.4,15,0,11.6,0,7.5C0,3.4,3.4,0,7.5,0z"/>
</svg>
